<svg width="74" height="89" viewBox="0 0 74 89" fill="none" xmlns="http://www.w3.org/2000/svg">
<path d="M17.0807 54.0337L17.0921 33.4223L0.282501 23.9125L0.271064 44.5123L17.0919 54.0337L17.0807 54.0337ZM17.0682 76.6348L17.0792 56.7711L0.0226028 47.2381L0.0119454 66.4347L17.0681 76.6463L17.0682 76.6348ZM35.7963 87.848L35.8075 67.6737L19.0206 57.6578L19.0094 77.7976L35.7963 87.8365L35.7963 87.848ZM21.3366 10.6855L37.686 20.1376L54.2148 9.84115L37.1584 0.0206022L19.9003 9.7876L21.3478 10.6855L21.3366 10.6855ZM55.3223 77.2196L55.3332 57.6895L38.1198 67.8476L38.1086 87.9873L55.3224 77.2081L55.3223 77.2196ZM56.6275 31.3165L73.9756 21.1814L56.5376 11.1652L40.3682 21.1628L56.6387 31.3165L56.6275 31.3165ZM73.9634 43.1385L73.9741 23.8959L57.4232 33.6058L57.1539 53.5153L73.9634 43.127L73.9634 43.1385ZM73.951 65.5556L73.962 45.6114L57.4107 56.0229L57.3997 75.9441L73.951 65.5556ZM18.2944 31.2952L35.8333 21.2178L19.0461 11.7884L17.924 11.0862L17.8454 11.0287L0.743993 21.6239L18.2944 31.2952Z" fill="url(#paint0_linear_206_1277)"/>
<path d="M38.0999 42.6356L38.4477 22.8986L55.3465 33.4782L55.2909 52.8128L38.0999 42.6356Z" fill="url(#paint1_linear_206_1277)"/>
<path d="M19.0458 52.5855L19.2812 32.9519L36.4047 23.0008L36.3938 42.646L19.0458 52.5855Z" fill="url(#paint2_linear_206_1277)"/>
<path d="M37.2231 65.5007L55.0764 55.251L37.0326 44.5327L19.3815 54.6561L37.2231 65.5007Z" fill="url(#paint3_linear_206_1277)"/>
<defs>
<linearGradient id="paint0_linear_206_1277" x1="73.9629" y1="44.0241" x2="0.0244099" y2="43.9831" gradientUnits="userSpaceOnUse">
<stop stop-color="#533DF8"/>
<stop offset="1" stop-color="#D963EC"/>
</linearGradient>
<linearGradient id="paint1_linear_206_1277" x1="38.1026" y1="37.8508" x2="55.3441" y2="37.8604" gradientUnits="userSpaceOnUse">
<stop offset="0.25" stop-color="#BCBEC0"/>
<stop offset="1" stop-color="white"/>
</linearGradient>
<linearGradient id="paint2_linear_206_1277" x1="19.054" y1="37.7826" x2="36.3965" y2="37.7922" gradientUnits="userSpaceOnUse">
<stop stop-color="white"/>
<stop offset="1" stop-color="#BCBEC0"/>
</linearGradient>
<linearGradient id="paint3_linear_206_1277" x1="37.4663" y1="72.1259" x2="36.9557" y2="36.5508" gradientUnits="userSpaceOnUse">
<stop stop-color="white"/>
<stop offset="0.74" stop-color="#BCBEC0"/>
</linearGradient>
</defs>
</svg>
