<?xml version="1.0" encoding="UTF-8"?>
<svg id="b" data-name="Layer 2" xmlns="http://www.w3.org/2000/svg" xmlns:xlink="http://www.w3.org/1999/xlink" viewBox="0 0 67.89 49.01">
  <defs>
    <style>
      .j {
        fill: url(#e);
      }

      .j, .k, .l, .m, .n, .o {
        stroke-width: 0px;
      }

      .k {
        fill: url(#f);
      }

      .l {
        fill: url(#d);
      }

      .m {
        fill: url(#i);
      }

      .n {
        fill: url(#h);
      }

      .o {
        fill: url(#g);
      }
    </style>
    <linearGradient id="d" x1="48.65" y1="41.99" x2="48.67" y2="43.35" gradientUnits="userSpaceOnUse">
      <stop offset="0" stop-color="#8A2BE2"/>
      <stop offset="1" stop-color="#8A2BE2"/>
    </linearGradient>
    <linearGradient id="e" x1="52.37" y1="42.75" x2="52.35" y2="38.33" gradientUnits="userSpaceOnUse">
      <stop offset="0" stop-color="#8A2BE2"/>
      <stop offset="0" stop-color="#8A2BE2"/>
      <stop offset=".16" stop-color="#8A2BE2"/>
      <stop offset=".32" stop-color="#8A2BE2"/>
      <stop offset=".49" stop-color="#8A2BE2"/>
      <stop offset=".65" stop-color="#8A2BE2"/>
      <stop offset=".82" stop-color="#8A2BE2"/>
      <stop offset="1" stop-color="#8A2BE2"/>
    </linearGradient>
    <linearGradient id="f" x1="56.57" y1="43.68" x2="56.61" y2="35.86" gradientUnits="userSpaceOnUse">
      <stop offset=".11" stop-color="#8A2BE2"/>
      <stop offset=".23" stop-color="#8A2BE2"/>
      <stop offset=".4" stop-color="#8A2BE2"/>
      <stop offset=".62" stop-color="#8A2BE2"/>
      <stop offset=".87" stop-color="#8A2BE2"/>
      <stop offset=".97" stop-color="#8A2BE2"/>
    </linearGradient>
    <linearGradient id="g" x1="15.71" y1="33.85" x2="15.97" y2="1.94" gradientUnits="userSpaceOnUse">
      <stop offset="0" stop-color="#8A2BE2"/>
      <stop offset="1" stop-color="#8A2BE2"/>
    </linearGradient>
    <linearGradient id="h" x1="47.98" y1="44.23" x2="47.63" y2="4.44" xlink:href="#g"/>
    <linearGradient id="i" x1="14.62" y1="24.59" x2="53.83" y2="24.59" gradientUnits="userSpaceOnUse">
      <stop offset="0" stop-color="#8A2BE2"/>
      <stop offset="1" stop-color="#8A2BE2"/>
    </linearGradient>
  </defs>
  <g id="c" data-name="Layer 1">
    <g>
      <path class="l" d="m47.98,42.74c0-.42.29-.72.69-.72s.68.3.68.72-.26.72-.69.72c-.4,0-.68-.31-.68-.72Z"/>
      <path class="j" d="m53.66,43.33l-.08-.7h-.03c-.31.44-.9.82-1.69.82-1.12,0-1.69-.79-1.69-1.59,0-1.34,1.19-2.07,3.33-2.06v-.11c0-.46-.13-1.28-1.26-1.28-.52,0-1.05.16-1.44.41l-.23-.66c.46-.3,1.12-.49,1.82-.49,1.69,0,2.11,1.16,2.11,2.27v2.07c0,.48.02.95.09,1.33h-.92Zm-.15-2.83c-1.1-.02-2.35.17-2.35,1.25,0,.65.44.96.95.96.72,0,1.18-.46,1.34-.93.03-.1.06-.22.06-.32v-.96Z"/>
      <path class="k" d="m57.24,36.23c.01.34-.24.62-.64.62-.35,0-.61-.27-.61-.62s.26-.63.63-.63.62.27.62.63Zm-1.12,7.1v-5.54h1.01v5.54h-1.01Z"/>
      <path class="o" d="m11.69,5.06c.59-.02,1.46-.03,2.59-.03,4.57,0,8.2.72,10.9,2.18,2.06-1.04,4.33-1.71,6.73-1.96C28.4,1.75,23.78,0,18.06,0H2.76C1.82,0,1.12.21.67.63c-.45.42-.67,1.08-.67,1.97,0,.97.27,1.64.82,2.02.54.39,1.54.58,2.99.58h.58v32.55h-.65c-1.45,0-2.44.18-2.95.54-.52.36-.78,1.01-.78,1.95,0,.87.22,1.52.67,1.95.45.44,1.12.65,2.01.65h7.36c.63,0,1.52.02,2.67.07,1.15.05,1.96.07,2.45.07,3.91,0,7.15-.39,9.69-1.18-2.04-1.08-3.87-2.5-5.41-4.2-1.48.23-3.1.35-4.86.35-.73,0-1.47-.01-2.23-.05-.76-.04-1.53-.09-2.3-.16V5.2c.51-.07,1.06-.12,1.65-.14Z"/>
      <path class="n" d="m67.17,44.85c-.48-.32-1.44-.48-2.87-.48h-.76l-.92-29.93h.53c1.21,0,2.04-.16,2.5-.48.45-.32.68-.9.68-1.73,0-.72-.18-1.28-.55-1.66-.36-.39-.9-.57-1.6-.57h-5.42c-1.01,0-1.79.17-2.33.53-.54.35-.96.92-1.27,1.71l-2.42,7.03c.48,1.69.74,3.48.74,5.33,0,4.89-1.82,9.37-4.82,12.79.55-.07.98-.23,1.31-.47.49-.35.9-.99,1.22-1.91l6.53-18.91.7,28.28h-1.42c-1.56,0-2.62.17-3.17.5-.55.33-.83.92-.83,1.78s.23,1.49.69,1.84c.46.35,1.33.53,2.61.53h9.28c.75,0,1.32-.2,1.72-.61.39-.41.59-.99.59-1.76,0-.88-.24-1.48-.73-1.79Zm-24.96.05c-.53-.35-1.44-.53-2.74-.53h-2.21v-.61c-1.06.18-2.17.28-3.31.28-.51,0-1-.02-1.5-.05v.39h-.74c-1.43,0-2.39.16-2.87.48-.48.32-.73.92-.73,1.79,0,.79.19,1.38.58,1.77.39.4.96.59,1.74.59h9.24c1.3,0,2.18-.18,2.64-.53.46-.35.69-.96.69-1.84,0-.81-.26-1.39-.79-1.74Z"/>
      <path class="m" d="m19.29,37.03c-2.37-2.37-3.61-5.33-4.25-8.53-1.18-5.94.15-11.32,3.88-16.1.24-.31.57-.54.87-.8-.51.78-1.02,1.56-1.53,2.33.03.03.07.06.1.08,1.09-.98,2.18-1.97,3.26-2.95-.07-.11-.13-.22-.2-.33-.56.3-1.12.6-1.69.9,1.43-2.06,3.47-3.37,5.64-4.49,8.02-4.15,18.12-2.08,23.82,4.85.15.18.21.42.32.62-.46-.43-.87-.92-1.38-1.28-.33-.23-.79-.28-1.19-.42-.03.1-.06.19-.09.29.11.16.22.31.34.47h-.72c.2.83.39,1.54.53,2.25.58,3.08.37,2.88,3.13,1.27.06-.03.08-.13.16-.27-.26-.35-.53-.72-.81-1.1.19.11.37.22.82.48-.37-.78-.59-1.25-.82-1.73,1.94,1.95,2.98,4.39,3.66,6.97,1.53,5.81.51,11.22-2.84,16.2-.18.26-.43.47-.65.71.15-.41.3-.82.52-1.4-1.22,1.11-2.3,2.09-3.38,3.06.09.13.17.26.26.38.51-.31,1.03-.63,1.54-.94-.58.49-1.17.96-1.72,1.48-.35.32-.61.74-.98,1.04-.51.42-1.08.77-1.62,1.15.44-.66.88-1.32,1.48-2.21-1.01.48-1.71.81-2.41,1.14.74-.57,1.48-1.13,2.22-1.7-1.38,0-2.34-1.66-3.86-.73-1.49.92-.68,2.46-1.56,3.83,1.32-.59,2.28-1.01,3.23-1.44-.73.5-1.46,1-2.37,1.63.58.06,1.02.21,1.42.12.64-.14,1.25-.44,1.87-.67-1.9,1.5-4.14,2.21-6.46,2.62-6.65,1.18-12.4-.74-17.36-5.21-.5-.45-.83-1.08-1.24-1.62.36.3.69.65,1.08.9.3.2.68.28,1.03.41.03-.08.05-.15.08-.23-.47-.53-.94-1.05-1.4-1.58.62.43,1.24.86,1.87,1.29-.82-1.58.11-3.87-1.97-4.86-.71.42-1.36.8-2.03,1.19.79.88,1.49,1.65,2.18,2.42-.47-.31-.94-.62-1.53-1,.29.57.52,1.03.75,1.49Zm33.12-8.31c-.41,1.45-.82,2.9-1.23,4.36.81-1.37,2.05-2.62,1.19-4.4.25-.08.67-.1.71-.24.16-.49.18-1.02.27-1.59-.27.15-.49.28-.72.41.12-.25.21-.51.37-.73.82-1.21.61-3.06-.58-4.22,0,.84-.03,1.59,0,2.34.05.86.16,1.71.25,2.57-.09.5-.17,1.01-.26,1.51ZM18.08,15.32c-.14.07-.37.12-.4.23-.41,1.62-.79,3.25-1.18,4.88,1.23-.83,2.28-1.72,3.24-2.69.49-.49.54-1.04-.23-1.45-.52-.28-.98-.67-1.47-1.01.64.31,1.28.61,1.92.92.52.25.92.28,1.06-.44.28-1.43.59-2.86.96-4.58-1.29,1.19-2.4,2.19-3.47,3.23-.23.22-.29.61-.43.91Zm27.02-5.1c-1.53-.83-3.05-1.66-4.76-2.59.26,1.37.37,2.51.73,3.56.13.39.92.87,1.3.8,1.11-.22,2.17-.71,3.29-1.1-.25-.29-.42-.5-.6-.71.1-.17.32-.38.29-.52-.44-1.61-2.14-2.46-4.2-2.02.49.27.87.44,1.22.68.92.62,1.82,1.27,2.73,1.9Zm-20.95,29.46c1.25.59,2.5,1.18,3.89,1.84-.24-1.21-.29-2.28-.69-3.21-.21-.48-1.07-1.03-1.57-.97-1.05.13-2.05.64-3.13,1.01.38.35.71.65,1.03.95-.22.01-.43.02-.67.04.57,1.84,2.48,2.85,3.98,2.23-.92-.61-1.88-1.24-2.84-1.87Zm-3.74-7.96c.1-.24.29-.49.27-.72-.07-1.13-.21-2.26-.31-3.4q-.2-2.3-2.07-1.29c.31-.35.71-.65.91-1.05.18-.36.37-1.04.19-1.22-.88-.9-1.88-1.69-2.99-2.64v6.18c.72-.48,1.32-.89,1.93-1.3-.52.58-1.04,1.16-1.71,1.9,1.29,1.21,2.54,2.38,3.79,3.55-1.26-1.02-2.52-2.03-3.95-3.19.41,1.83.79,3.5,1.25,5.57,1.07-.95,1.88-1.66,2.69-2.38Zm30.3-4.68c-.51-.38-1.04-.75-1.54-1.15-.6-.48-1.07-.28-1.13.38-.17,1.74-.21,3.5-.31,5.34.53-.31.9-.53,1.27-.75-1.18,1.66-.99,2.05,1.69,3.07.38-1.7.74-3.38,1.16-5.27-1.14.89-2.02,1.57-2.89,2.25.87-.92,1.75-1.83,2.6-2.73-.32-.42-.61-.79-.89-1.16.39.22.79.44,1.31.73v-6.1c-1.1.79-2.06,1.48-3.01,2.17.87-.87,1.74-1.73,2.83-2.82-1.15-1.03-2.26-2.03-3.37-3.03,1.1.88,2.21,1.77,3.48,2.79-.35-1.58-.66-2.99-.98-4.41-.07-.31-.2-.6-.31-.9-2.33,1.04-2.35,1.06-2.15,2.56-.86-.07-.73.54-.7,1.05.08,1.36.23,2.71.23,4.07,0,.88.35.93,1.01.66-.32.84-.15,1.51.6,2.08.43.33.74.8,1.1,1.21Zm-11.99,10.64c-.85.49-1.7.99-2.55,1.47-.73.42-.6,1.01-.02,1.24,1.17.48,2.43.77,3.83,1.19-.02-1.57,1.33-2.9.07-4.24-.56.15-.97.26-1.38.38.18-.15.37-.28.54-.44.24-.24.46-.49.69-.74-.23-.2-.44-.44-.7-.58-1.05-.53-2.11-1.02-3.01-1.45-1.65.52-2.04,1.6-1.84,3.09.14,1.07.88,1.58,1.9,1.14.81-.35,1.63-.7,2.44-1.05Zm.73-25.77c-.84-.38-1.74-.68-2.52-1.16-.81-.49-1.53-.55-2.08.21-.3.43-.43,1.06-.44,1.6-.05,2.17.79,2.68,2.72,1.76.66-.32,1.3-.68,1.99-.92,1.04-.37.99-.87.3-1.53,1.26.22,1.41.09,1.18-1.16-.17-.94-.41-1.87-.65-2.96-1.18.33-2.26.59-3.33.95-.32.11-.57.45-.86.68.24.27.44.61.74.8.97.61,1.97,1.16,2.95,1.74Zm6.12,21.62c-.99.73-1.96,1.49-2.98,2.18-.74.5-.51,1.01.06,1.26,1.01.46,2.1.74,3.29,1.15.36-1.54.72-2.9.99-4.28.11-.57-.14-.86-.77-.52-.2.11-.42.17-.64.25.26-.53.83-1.45.74-1.52-.93-.7-1.92-1.38-2.99-1.82-.4-.16-1.07.31-1.59.48-.09,1.74-.18,3.38-.28,5.29,1.61-.96,2.89-1.72,4.16-2.48Zm-3.19-19.91c-.83.18-1.06.65-.91,1.49.15.83.13,1.69.17,2.53.07,1.41.5,1.77,1.92,1.57-.65.86-.49,1.82.37,2.43.46.32.87.69,1.31,1.04-.46-.23-.91-.51-1.39-.68-.39-.14-.85-.25-1.25-.18-.66.12-.79.63-.76,1.28.06,1.17-.03,2.36.04,3.53.02.36.26.83.55,1.01.23.15.74.03,1.04-.13.89-.47,1.73-1.03,2.59-1.55-.68.54-1.34,1.12-2.05,1.61-1.26.87-1.24,1.9.11,2.68.67.39,1.34.76,2,1.17.64.39,1.12.33,1.21-.49.16-1.53.31-3.07.38-4.61.03-.68-.38-.93-1.04-.56-.2.11-.43.16-.64.24.49-.68,1.66-1.19.54-2.26.33.07.67.14,1.2.25-.09-1.57-.22-3-.25-4.45-.02-.85-.19-1.51-1.06-1.77-.98.49-1.95.98-2.92,1.46.75-.51,1.5-1.03,2.26-1.53.94-.61.98-.94.1-1.59-1.17-.86-2.36-1.7-3.55-2.55,1.53.89,3.06,1.79,4.84,2.83-.42-1.86-.79-3.48-1.19-5.23-.99.33-1.78.67-2.61.84-.96.2-1.29.68-1.01,1.6Zm-16.24,22.12c.26-.26.74-.5.75-.77.04-.84-.18-1.7-.15-2.54.04-1.2-.25-2.11-1.55-2.45-.39.16-.83.33-1.28.51.15-.16.27-.37.45-.49,1.26-.83,1.26-1.59,0-2.46-.34-.24-.62-.56-.93-.84.49.27.96.59,1.47.81.32.14.83.3,1.04.16.29-.2.49-.68.52-1.06.07-.97-.06-1.96.03-2.92.09-1.07-.12-1.88-1.3-2.24-1.29.88-2.59,1.78-4.13,2.84.54.59.98,1.11,1.45,1.59.3.31.64.58.97.87-.21-.08-.43-.14-.64-.23-.59-.26-1.17-.54-1.76-.81-.11.67-.23,1.34-.31,2.02-.04.36-.01.73.02,1.09.09.94.21,1.87.33,2.9,1.1-.48,1.96-.86,2.82-1.24-.35.25-.68.53-1.05.75-1.36.8-1.39,1.19-.12,2.11,1.14.83,2.28,1.64,3.42,2.46-1.48-.87-2.95-1.74-4.7-2.76-.06,1.82.5,3.36.99,4.99,1.03-.35,1.93-.71,2.87-.96.75-.2,1-.59.81-1.31Zm-.97-16.37c.49-.15.97-.3,1.62-.5-.6-1.76.8-3.61-.44-5.43-1.66,1.12-3.11,2.09-4.75,3.2.43.44.72.84,1.1,1.11.81.59,1.67,1.11,2.51,1.66-1.11-.54-2.22-1.09-3.34-1.64-1.05.78-1.6,4.31-.93,6.15,1.05-.71,2.04-1.5,3.14-2.1,1.06-.58,1.35-1.37,1.09-2.46Zm13.95-.6c-1.04-.49-2.09-.99-3.09-1.46-.56.36-1.09.71-1.64,1.08,0,1.06,0,2.11,0,3.16,0,1.61.95,2.13,2.39,1.32.74-.42,1.46-.9,2.23-1.24,1.03-.46,1.33-1.19,1.07-2.22,1-.07,1.43-.56,1.29-1.58-.12-.88-.18-1.78-.24-2.67-.09-1.32-.98-1.87-2.18-1.31-.95.44-1.9.91-2.77,1.33-.26,1.41.34,2.17,1.55,2.64.51.2.93.63,1.39.96Zm-6.86,4.74c.57-.27,1.14-.55,1.73-.83v-4.36c-.55-.37-1.08-.73-1.66-1.13-1.37.79-2.77,1.6-4.04,2.34-.28,1.42.58,1.89,1.5,2.4.87.48,1.68,1.08,2.51,1.63-1.39-.71-2.77-1.42-4.33-2.21-.36.48-1.01.96-1.06,1.5-.15,1.49-.05,3-.05,4.43.74.68,1.37.57,2.11.09,1.05-.69,2.17-1.27,3.29-1.91v-1.94Zm-.99,8.05c.33.14.7.44.99.38.6-.13,1.61-.39,1.66-.71.19-1.35.24-2.77.03-4.11-.08-.52-.97-.92-1.51-1.38-1.14.65-2.23,1.28-3.31,1.9-1.22.7-1.22,1.76-.01,2.51.74.47,1.46.97,2.2,1.45-1.07-.52-2.14-1.03-3.22-1.56-.38.25-.77.52-1.14.77.13,1.37.22,2.66.37,3.95.11.97.7,1.18,1.55.81.67-.29,1.31-.68,1.99-.9,1.11-.36,1.67-1.01,1.44-2.17-.36-.32-.7-.63-1.04-.94Zm6.86-4.64c.47.22.95.43,1.41.68,1.15.63,1.95.19,1.98-1.13.02-.81-.05-1.63.03-2.44.14-1.25-.16-2.2-1.52-2.66-1.31.75-2.68,1.54-3.95,2.27v1.85c.71.5,1.39.98,2.08,1.47-.76-.34-1.52-.67-2.31-1.02q-1.48.99-1.48,2.78c0,.57,0,1.14,0,1.71.01,1.39.97,1.92,2.21,1.22.78-.44,1.54-.93,2.34-1.31.91-.43,1.42-1.01,1.16-1.91-.71-.55-1.34-1.03-1.96-1.51Zm-2.03,5.41c-.33,1.64.66,2.15,1.75,2.6.56.23,1.1.53,1.66.77.92.4,1.47.07,1.58-.93.09-.89.1-1.79.24-2.67.17-1.05-.1-1.78-1.17-2.1-1.39.8-2.76,1.59-4.05,2.34Zm-9.18-13.14c.72-.14,1.35-.16,1.89-.39.71-.3,1.32-.82,2.02-1.13,1.05-.46,1.74-1.09,1.51-2.46-.82-.4-1.73-.86-2.64-1.29-1.56-.75-2.4-.3-2.54,1.39-.1,1.13-.14,2.27-.24,3.88Zm5.44,15.13c-1.09.5-2.15.98-3.2,1.5-.89.43-.91.96-.04,1.45.99.55,2.01,1.05,3.04,1.52.95.43,1.85-.15,1.85-1.18,0-1.11.35-2.39-1.23-2.84-.16-.05-.27-.28-.41-.43Zm-4.24-21.91c.52.42.81.72,1.16.91.82.44,1.67.82,2.5,1.23,1.23.61,2.23-.02,2.23-1.41,0-.65,0-1.29,0-2.1-.61-.2-1.34-.73-1.85-.56-1.29.42-2.48,1.15-4.05,1.93Zm-5.74-1.34c-.41,1.79-.79,3.46-1.25,5.43,1.77-1.17,3.31-2.12,4.77-3.18.54-.39.38-.93-.29-1.16-1.02-.36-2.05-.69-3.24-1.09Zm-5.79,10c1.23,1.06,2.31,2,3.39,2.94.1-.05.19-.1.29-.16-.12-1.97.48-3.94.09-6.29-1.41,1.31-2.5,2.33-3.77,3.51Zm11.83-13.41c-.27,1.26-.58,2.42-.75,3.61-.12.86.44.81,1,.53,1.09-.54,2.19-1.07,3.25-1.65.27-.15.65-.54.6-.73-.08-.3-.43-.63-.74-.74-1.06-.38-2.16-.66-3.37-1.02Zm0,33.83c1.32-.4,2.45-.71,3.56-1.09.25-.09.55-.38.59-.61.03-.19-.27-.52-.49-.64-1.07-.58-2.15-1.12-3.25-1.65-.63-.3-1.19.11-1.07.8.18,1.02.42,2.04.66,3.19Zm-.4-33.96c-1.92,1.11-3.62,2.1-5.49,3.18,1.35.48,2.42.88,3.5,1.24.68.22,1.19,0,1.33-.76.2-1.11.4-2.22.66-3.66Zm18.38,30.14c.06.05.13.11.19.16,1.24-1.14,2.47-2.28,3.8-3.51-.58-.35-.99-.6-1.4-.84-.98-.57-1.52-.33-1.78.78-.26,1.14-.54,2.27-.81,3.41ZM34.39,5.65c0,.71-.18,1.3.04,1.64.34.53,1,1.31,1.43,1.25,1.23-.17,2.41-.7,3.92-1.18-1.95-.62-3.57-1.13-5.38-1.71Zm-5.74,1.68c1.5.47,2.64.85,3.8,1.18.18.05.43-.05.62-.13,1.31-.53.98-1.58.87-2.7-1.71.53-3.32,1.03-5.29,1.65Zm-.13,34.53c1.99.62,3.69,1.14,5.5,1.71,0-.63.02-.99,0-1.35-.05-.62-1.39-1.61-1.96-1.45-1.07.31-2.13.65-3.53,1.09Zm10.83.13l-.05-.25c-.74-.21-1.48-.39-2.21-.62-1.95-.61-2.92.22-2.53,2.37,1.61-.5,3.2-1,4.79-1.49ZM27.32,7.55c-2.26-.4-4.05.69-4.3,2.49,1.38-.8,2.76-1.6,4.3-2.49Zm-11.33,19.52v-5.01c-1.43,1.41-1.46,3.46,0,5.01Zm35.29-10.92c.32,1.47.63,2.89.96,4.39.79-.93.29-3-.96-4.39Zm-11.68-9.19c-.37-1.16-2.37-1.76-3.96-1.31,1.26.42,2.55.84,3.96,1.31Zm-10.86-.35c.04.11.08.22.12.34,1.33-.44,2.66-.89,3.99-1.33-1.45.09-3.07-.28-4.11,1Zm-12.54,22.19c-.15.01-.3.02-.45.04-.22,1.51.63,2.77,1.33,4.07-.29-1.37-.58-2.74-.88-4.11Zm19.22,14.82c1.43-.3,3.21.38,4.14-1.37-1.38.46-2.76.91-4.14,1.37ZM15.89,20.26c.11,0,.22.01.33.02.28-1.34.56-2.68.84-4.03-.46,1.32-1.8,2.47-1.17,4.01Zm16.79,23.28c-1.24-.4-2.48-.79-3.8-1.22.33,1.03.65,1.13,3.8,1.22Z"/>
    </g>
  </g>
</svg>