<svg id="visual" viewBox="0 0 900 600" width="900" height="600" xmlns="http://www.w3.org/2000/svg" xmlns:xlink="http://www.w3.org/1999/xlink" version="1.1"><g transform="translate(439.6287131360573 297.7412976335529)"><path d="M131.6 -245.6C161.2 -210.8 169.4 -156.7 198.2 -112.5C227 -68.3 276.5 -34.2 301 14.2C325.6 62.5 325.2 125 297.3 170.8C269.3 216.5 213.9 245.5 159.8 267.9C105.7 290.4 52.8 306.2 10.6 287.8C-31.7 269.5 -63.3 217 -101.7 185.5C-140.1 154 -185.2 143.5 -227.1 116.1C-268.9 88.7 -307.5 44.3 -296.1 6.5C-284.8 -31.3 -223.6 -62.5 -188.3 -101.3C-153.1 -140.2 -143.8 -186.6 -116.7 -222.8C-89.7 -259 -44.8 -285 3.1 -290.3C51 -295.7 102 -280.3 131.6 -245.6" fill="#8A2BE2"></path></g></svg>