<svg id="visual" viewBox="0 0 900 600" width="900" height="600" xmlns="http://www.w3.org/2000/svg" xmlns:xlink="http://www.w3.org/1999/xlink" version="1.1"><path d="M0 520L25 524.2C50 528.3 100 536.7 150 535.5C200 534.3 250 523.7 300 510.2C350 496.7 400 480.3 450 469.2C500 458 550 452 600 465C650 478 700 510 750 514C800 518 850 494 875 482L900 470L900 601L875 601C850 601 800 601 750 601C700 601 650 601 600 601C550 601 500 601 450 601C400 601 350 601 300 601C250 601 200 601 150 601C100 601 50 601 25 601L0 601Z" fill="#ffffff" stroke-linecap="round" stroke-linejoin="miter"></path></svg>